Coordinates
version=1
nRows=16
nColumns=21
inDegrees=yes

Units are S.I. units (second, meters, Newtons, ...)
If the header above contains a line with 'inDegrees', this indicates whether rotational values are in degrees (yes) or radians (no).

endheader
time	sternoclavicular_r2	sternoclavicular_r3	unrotscap_r3	unrotscap_r2	acromioclavicular_r2	acromioclavicular_r3	acromioclavicular_r1	unrothum_r1	unrothum_r3	unrothum_r2	elv_angle	shoulder_elev	shoulder1_r2	shoulder_rot	elbow_flexion	pro_sup	deviation	flexion	wrist_hand_r1	wrist_hand_r3
      1.00502513	    -10.54299008	      4.46551299	     -4.46551299	     10.54299008	     -2.13474103	     17.25222609	      7.75475689	     -7.75475689	    -17.25222609	      2.13474103	    117.96967304	     43.56597705	   -117.96967304	     19.93161449	      1.23776520	      0.00000000	      0.00000000	     -0.00000000	     -0.00000000	      0.00000000
      1.02512563	    -10.57146146	      4.47757213	     -4.47757213	     10.57146146	     -2.14050591	     17.29881579	      7.77569864	     -7.77569864	    -17.29881579	      2.14050591	    117.97487028	     43.68362712	   -117.97487028	     19.93024746	      1.23514350	      0.00000000	      0.00000000	     -0.00000000	     -0.00000000	      0.00000000
      1.04522613	    -10.60082808	      4.49001044	     -4.49001044	     10.60082808	     -2.14645205	     17.34687043	      7.79729887	     -7.79729887	    -17.34687043	      2.14645205	    117.98021854	     43.80497653	   -117.98021854	     19.92885712	      1.23242964	      0.00000000	      0.00000000	     -0.00000000	     -0.00000000	      0.00000000
      1.06532663	    -10.63107108	      4.50281995	     -4.50281995	     10.63107108	     -2.15257564	     17.39635915	      7.81954371	     -7.81954371	    -17.39635915	      2.15257564	    117.98572764	     43.92994733	   -117.98572764	     19.92745327	      1.22979612	      0.00000000	      0.00000000	     -0.00000000	     -0.00000000	      0.00000000
      1.08542714	    -10.66217104	      4.51599243	     -4.51599243	     10.66217104	     -2.15887275	     17.44725018	      7.84241888	     -7.84241888	    -17.44725018	      2.15887275	    117.99140638	     44.05845928	   -117.99140638	     19.92603939	      1.22743143	      0.00000000	      0.00000000	     -0.00000000	     -0.00000000	      0.00000000
      1.10552764	    -10.69411481	      4.52952230	     -4.52952230	     10.69411481	     -2.16534071	     17.49952198	      7.86591470	     -7.86591470	    -17.49952198	      2.16534071	    117.99725847	     44.19045803	   -117.99725847	     19.92461078	      1.22549064	      0.00000000	      0.00000000	     -0.00000000	     -0.00000000	      0.00000000
      1.12562814	    -10.72690169	      4.54340927	     -4.54340927	     10.72690169	     -2.17197939	     17.55317343	      7.89003065	     -7.89003065	    -17.55317343	      2.17197939	    118.00328288	     44.32594070	   -118.00328288	     19.92315464	      1.22404422	      0.00000000	      0.00000000	     -0.00000000	     -0.00000000	      0.00000000
      1.14572864	    -10.76054589	      4.55765937	     -4.55765937	     10.76054589	     -2.17879166	     17.60822777	      7.91477720	     -7.91477720	    -17.60822777	      2.17879166	    118.00947798	     44.46496601	   -118.00947798	     19.92165210	      1.22305017	      0.00000000	      0.00000000	     -0.00000000	     -0.00000000	      0.00000000
      1.16582915	    -10.79507333	      4.57228356	     -4.57228356	     10.79507333	     -2.18578276	     17.66472741	      7.94017340	     -7.94017340	    -17.66472741	      2.18578276	    118.01584641	     44.60764107	   -118.01584641	     19.92008180	      1.22236854	      0.00000000	      0.00000000	     -0.00000000	     -0.00000000	      0.00000000
      1.18592965	    -10.83051396	      4.58729454	     -4.58729454	     10.83051396	     -2.19295877	     17.72272137	      7.96624128	     -7.96624128	    -17.72272137	      2.19295877	    118.02239863	     44.75408960	   -118.02239863	     19.91842347	      1.22181354	      0.00000000	      0.00000000	     -0.00000000	     -0.00000000	      0.00000000
      1.20603015	    -10.86689344	      4.60270317	     -4.60270317	     10.86689344	     -2.20032487	     17.78225163	      7.99299973	     -7.99299973	    -17.78225163	      2.20032487	    118.02915539	     44.90441768	   -118.02915539	     19.91666014	      1.22121495	      0.00000000	      0.00000000	     -0.00000000	     -0.00000000	      0.00000000
      1.22613065	    -10.90422732	      4.61851604	     -4.61851604	     10.90422732	     -2.20788422	     17.84334366	      8.02046017	     -8.02046017	    -17.84334366	      2.20788422	    118.03615283	     45.05868959	   -118.03615283	     19.91477864	      1.22046235	      0.00000000	      0.00000000	     -0.00000000	     -0.00000000	      0.00000000
      1.24623116	    -10.94251765	      4.63473402	     -4.63473402	     10.94251765	     -2.21563724	     17.90600077	      8.04862411	     -8.04862411	    -17.90600077	      2.21563724	    118.04345569	     45.21691372	   -118.04345569	     19.91276900	      1.21952698	      0.00000000	      0.00000000	     -0.00000000	     -0.00000000	      0.00000000
      1.26633166	    -10.98175112	      4.65135146	     -4.65135146	     10.98175112	     -2.22358122	     17.97020123	      8.07748178	     -8.07748178	    -17.97020123	      2.22358122	    118.05118194	     45.37903515	   -118.05118194	     19.91062423	      1.21846099	      0.00000000	      0.00000000	     -0.00000000	     -0.00000000	      0.00000000
      1.28643216	    -11.02190384	      4.66835826	     -4.66835826	     11.02190384	     -2.23171133	     18.03590591	      8.10701558	     -8.10701558	    -18.03590591	      2.23171133	    118.05951976	     45.54495512	   -118.05951976	     19.90834230	      1.21733341	      0.00000000	      0.00000000	     -0.00000000	     -0.00000000	      0.00000000
      1.30653266	    -11.06297004	      4.68575197	     -4.68575197	     11.06297004	     -2.24002640	     18.10310539	      8.13722128	     -8.13722128	    -18.10310539	      2.24002640	    118.06864498	     45.71464979	   -118.06864498	     19.90593101	      1.21600204	      0.00000000	      0.00000000	     -0.00000000	     -0.00000000	      0.00000000
